<?xml version="1.0" encoding="UTF-8"?>
<svg width="36px" height="36px" viewBox="0 0 36 36" version="1.1" xmlns="http://www.w3.org/2000/svg">
    <g stroke="none" stroke-width="1" fill="none" fill-rule="evenodd">
        <g transform="translate(2, 2)">
            <ellipse fill="#E53935" cx="16" cy="18" rx="14" ry="12"></ellipse>
            <path d="M16,4 C20.418278,4 24,7.581722 24,12 C24,16.418278 20.418278,20 16,20 C11.581722,20 8,16.418278 8,12 C8,7.581722 11.581722,4 16,4 Z" fill="#000000" opacity="0.2"></path>
            <circle fill="#000000" opacity="0.2" cx="8" cy="16" r="2"></circle>
            <circle fill="#000000" opacity="0.2" cx="24" cy="16" r="2"></circle>
            <circle fill="#000000" opacity="0.2" cx="10" cy="22" r="2"></circle>
            <circle fill="#000000" opacity="0.2" cx="22" cy="22" r="2"></circle>
            <circle fill="#000000" opacity="0.2" cx="10" cy="14" r="2"></circle>
            <circle fill="#000000" opacity="0.2" cx="22" cy="14" r="2"></circle>
            <path d="M16,4 C17.1,4 18,5.1 18,6 L18,8 C18,8.9 17.1,10 16,10 C14.9,10 14,8.9 14,8 L14,6 C14,5.1 14.9,4 16,4 Z" fill="#795548"></path>
            <path d="M18,0 C19.1,0 20,0.9 20,2 C20,3.1 19.1,4 18,4 C16.9,4 16,3.1 16,2 C16,0.9 16.9,0 18,0 Z" fill="#795548"></path>
            <path d="M14,0 C15.1,0 16,0.9 16,2 C16,3.1 15.1,4 14,4 C12.9,4 12,3.1 12,2 C12,0.9 12.9,0 14,0 Z" fill="#795548"></path>
        </g>
    </g>
</svg>
